<svg xmlns="http://www.w3.org/2000/svg" width="359" height="80" fill="none"><path fill="#1A1" fill-rule="evenodd" d="M285.5 75.5H322L354 40 322 4h-36.5l32 36-32 35.5Z" clip-rule="evenodd"/><path fill="#000" d="M285.5 4H5v71.5h280.5l32-35.5-32-36Z"/><path fill="#F7A0A0" d="M34.132 61V35.784h-9.984v-6.272h9.984v-5.696c0-2.944.9387-5.2693 2.816-6.976 1.8773-1.7067 4.4373-2.56 7.68-2.56h10.304v6.144H44.756c-1.1947 0-2.1333.2987-2.816.896-.64.5973-.96 1.4507-.96 2.56v5.632h13.952v6.272H40.98V61h-6.848Z"/><path fill="#F7D4A0" d="M74.235 61.576c-2.9013 0-5.4187-.5547-7.552-1.664-2.1333-1.1093-3.776-2.688-4.928-4.736-1.152-2.048-1.728-4.4587-1.728-7.232v-9.088c0-2.816.576-5.2267 1.728-7.232 1.152-2.048 2.7947-3.6267 4.928-4.736 2.1333-1.1093 4.6507-1.664 7.552-1.664s5.4187.5547 7.552 1.664c2.1333 1.1093 3.776 2.688 4.928 4.736 1.152 2.0053 1.728 4.416 1.728 7.232v9.088c0 2.7733-.576 5.184-1.728 7.232-1.152 2.048-2.7947 3.6267-4.928 4.736-2.1333 1.1093-4.6507 1.664-7.552 1.664Zm0-6.08c2.3467 0 4.16-.64 5.44-1.92 1.28-1.3227 1.92-3.2 1.92-5.632v-9.088c0-2.4747-.64-4.352-1.92-5.632-1.28-1.28-3.0933-1.92-5.44-1.92-2.304 0-4.1173.64-5.44 1.92-1.28 1.28-1.92 3.1573-1.92 5.632v9.088c0 2.432.64 4.3093 1.92 5.632 1.3227 1.28 3.136 1.92 5.44 1.92Z"/><path fill="#B1F7A0" d="M109.026 61.64c-2.901 0-5.461-.5333-7.68-1.6-2.176-1.1093-3.8613-2.688-5.056-4.736-1.152-2.0907-1.728-4.5227-1.728-7.296v-9.216c0-2.816.576-5.248 1.728-7.296 1.1947-2.048 2.88-3.6053 5.056-4.672 2.219-1.1093 4.779-1.664 7.68-1.664 4.224 0 7.616 1.1093 10.176 3.328 2.56 2.2187 3.904 5.248 4.032 9.088h-6.912c-.128-2.0053-.832-3.5627-2.112-4.672-1.28-1.1093-3.008-1.664-5.184-1.664-2.347 0-4.203.6613-5.568 1.984-1.365 1.28-2.048 3.1147-2.048 5.504v9.28c0 2.3893.683 4.2453 2.048 5.568 1.365 1.3227 3.221 1.984 5.568 1.984 2.176 0 3.904-.5547 5.184-1.664 1.28-1.1093 1.984-2.6667 2.112-4.672h6.912c-.128 3.84-1.472 6.8693-4.032 9.088-2.56 2.2187-5.952 3.328-10.176 3.328Z"/><path fill="#A0F7C3" d="M143.241 61.64c-4.224 0-7.595-1.216-10.112-3.648-2.517-2.4747-3.776-5.824-3.776-10.048V25.8h6.912v22.144c0 2.432.619 4.3307 1.856 5.696 1.237 1.3227 2.944 1.984 5.12 1.984 2.219 0 3.947-.6613 5.184-1.984 1.28-1.3653 1.92-3.264 1.92-5.696V25.8h6.912v22.144c0 4.224-1.28 7.5733-3.84 10.048-2.517 2.432-5.909 3.648-10.176 3.648Z"/><path fill="#A0F7F7" d="M176.624 61.576c-2.517 0-4.736-.4053-6.656-1.216-1.877-.8107-3.371-1.92-4.48-3.328-1.067-1.4507-1.685-3.1573-1.856-5.12h6.912c.171 1.152.789 2.0907 1.856 2.816 1.067.6827 2.475 1.024 4.224 1.024h2.752c2.091 0 3.669-.4267 4.736-1.28 1.067-.8533 1.6-1.984 1.6-3.392 0-1.3653-.491-2.432-1.472-3.2-.939-.8107-2.347-1.344-4.224-1.6l-4.544-.704c-3.755-.5973-6.528-1.664-8.32-3.2-1.749-1.5787-2.624-3.904-2.624-6.976 0-3.2427 1.045-5.7387 3.136-7.488 2.133-1.792 5.269-2.688 9.408-2.688h2.432c3.669 0 6.592.8533 8.768 2.56 2.219 1.664 3.477 3.904 3.776 6.72h-6.912c-.171-1.024-.747-1.856-1.728-2.496-.939-.64-2.24-.96-3.904-.96h-2.432c-2.005 0-3.477.384-4.416 1.152-.896.7253-1.344 1.8133-1.344 3.264 0 1.28.405 2.24 1.216 2.88.811.64 2.069 1.088 3.776 1.344l4.672.768c3.968.5547 6.869 1.664 8.704 3.328 1.877 1.6213 2.816 3.9893 2.816 7.104 0 3.3707-1.109 5.9947-3.328 7.872-2.176 1.8773-5.44 2.816-9.792 2.816h-2.752Z"/><path fill="#A0C3F7" d="M212.375 61.64c-2.859 0-5.376-.5547-7.552-1.664-2.133-1.152-3.776-2.752-4.928-4.8-1.152-2.048-1.728-4.4373-1.728-7.168v-9.216c0-2.7733.576-5.1627 1.728-7.168 1.152-2.048 2.795-3.6267 4.928-4.736 2.176-1.152 4.693-1.728 7.552-1.728 2.901 0 5.419.576 7.552 1.728 2.133 1.1093 3.776 2.688 4.928 4.736 1.152 2.0053 1.728 4.3947 1.728 7.168v6.272h-21.76v2.944c0 2.6027.64 4.5867 1.92 5.952 1.323 1.3653 3.221 2.048 5.696 2.048 2.005 0 3.627-.3413 4.864-1.024 1.237-.7253 2.005-1.7707 2.304-3.136h6.848c-.512 2.9867-2.048 5.376-4.608 7.168-2.56 1.7493-5.717 2.624-9.472 2.624Zm7.552-20.736v-2.176c0-2.56-.64-4.544-1.92-5.952-1.28-1.408-3.157-2.112-5.632-2.112-2.432 0-4.309.704-5.632 2.112-1.28 1.408-1.92 3.4133-1.92 6.016v1.6l15.616-.064-.512.576Z"/><path fill="#B1A0F7" d="M244.414 61.64c-3.541 0-6.379-1.1947-8.512-3.584-2.133-2.3893-3.2-5.6107-3.2-9.664v-9.92c0-4.096 1.067-7.3387 3.2-9.728 2.133-2.3893 4.971-3.584 8.512-3.584 2.901 0 5.205.8107 6.912 2.432 1.707 1.5787 2.56 3.7547 2.56 6.528l-1.472-1.6h1.6l-.192-8.192V14.28h6.912V61h-6.848v-6.72h-1.472l1.472-1.6c0 2.7733-.853 4.9707-2.56 6.592-1.707 1.5787-4.011 2.368-6.912 2.368Zm2.368-6.016c2.176 0 3.883-.6613 5.12-1.984 1.28-1.3653 1.92-3.2427 1.92-5.632v-9.216c0-2.3893-.64-4.2453-1.92-5.568-1.237-1.3653-2.944-2.048-5.12-2.048-2.261 0-4.032.6613-5.312 1.984-1.28 1.28-1.92 3.1573-1.92 5.632v9.216c0 2.4747.64 4.3733 1.92 5.696 1.28 1.28 3.051 1.92 5.312 1.92Z"/></svg>